<svg id="Layer_1" enable-background="new 0 0 512 512" height="512" viewBox="0 0 512 512" width="512" xmlns="http://www.w3.org/2000/svg"><g><path d="m211.05 453.985h90v50.515h-90z" fill="#b9cfdf"/><path d="m276.049 453.985h25v50.515h-25z" fill="#90abbd"/><path d="m504.5 158.58v275.26c0 11.13-9.04 20.14-20.19 20.14h-456.62c-11.15 0-20.19-9.01-20.19-20.14v-275.26c0-14.3 11.62-25.89 25.94-25.89h445.12c14.32 0 25.94 11.59 25.94 25.89z" fill="#fdeda5"/><path d="m504.5 158.58v275.26c0 11.13-9.04 20.14-20.19 20.14h-456.62c-11.15 0-20.19-9.01-20.19-20.14v-2.5h377.69c7.97 0 15.19-3.23 20.42-8.45 5.23-5.23 8.46-12.45 8.46-20.42 0-15.95-12.93-28.88-28.88-28.88h-294.86c-25.09 0-45.43-20.34-45.43-45.43v-195.47h433.66c14.32 0 25.94 11.59 25.94 25.89z" fill="#fbdf63"/><path d="m504.5 408.71v25.13c0 11.13-9.04 20.14-20.19 20.14h-456.62c-11.15 0-20.19-9.01-20.19-20.14v-25.13z" fill="#56788b"/><path d="m504.5 408.71v25.13c0 11.13-9.04 20.14-20.19 20.14h-456.62c-11.15 0-20.19-9.01-20.19-20.14v-2.5h377.69c7.97 0 15.19-3.23 20.42-8.45 3.82-3.82 6.58-8.71 7.77-14.18z" fill="#415e6f"/><path d="m442.07 27.18v299.15c0 10.86-8.81 19.68-19.68 19.68h-330.64c-10.87 0-19.68-8.82-19.68-19.68v-299.15c0-10.87 8.81-19.68 19.68-19.68h330.64c10.87 0 19.68 8.81 19.68 19.68z" fill="#00c2f3"/><path d="m442.07 27.18v299.15c0 10.86-8.81 19.68-19.68 19.68h-330.64c-10.87 0-19.68-8.82-19.68-19.68v-8.32h322.32c10.87 0 19.68-8.82 19.68-19.68v-183.15c0-10.87-8.81-19.68-19.68-19.68h-322.32v-68.32c0-10.87 8.81-19.68 19.68-19.68h330.64c10.87 0 19.68 8.81 19.68 19.68z" fill="#1e90ff"/><path d="m442.07 27.18v40h-370v-40c0-10.87 8.81-19.68 19.68-19.68h330.64c10.87 0 19.68 8.81 19.68 19.68z" fill="#56788b"/><path d="m442.07 27.18v40h-28v-40c0-10.87-8.81-19.68-19.68-19.68h28c10.87 0 19.68 8.81 19.68 19.68z" fill="#415e6f"/><g fill="#fff"><circle cx="131.683" cy="286.613" r="15"/><circle cx="131.683" cy="221.613" r="15"/></g></g><g><path d="m478.556 125.193h-6.192c-4.143 0-7.5 3.358-7.5 7.5s3.357 7.5 7.5 7.5h6.192c10.17 0 18.443 8.247 18.443 18.383v242.63h-481.999v-65.349c0-4.142-3.358-7.5-7.5-7.5s-7.5 3.358-7.5 7.5v97.986c0 15.241 12.42 27.641 27.688 27.641h175.862v35.516h-53.2c-4.142 0-7.5 3.358-7.5 7.5s3.358 7.5 7.5 7.5h211.399c4.143 0 7.5-3.358 7.5-7.5s-3.357-7.5-7.5-7.5h-53.199v-35.515h77.691c4.143 0 7.5-3.358 7.5-7.5s-3.357-7.5-7.5-7.5h-358.553c-6.996 0-12.688-5.671-12.688-12.641v-17.638h482v17.638c0 6.97-5.691 12.641-12.688 12.641h-63.299c-4.143 0-7.5 3.358-7.5 7.5s3.357 7.5 7.5 7.5h63.299c15.267 0 27.688-12.4 27.688-27.641v-275.268c0-18.408-15.003-33.383-33.444-33.383zm-185.006 336.292v35.515h-75v-35.515z"/><path d="m7.5 308.247c4.142 0 7.5-3.358 7.5-7.5v-142.171c0-10.137 8.273-18.383 18.443-18.383h8.899c4.142 0 7.5-3.358 7.5-7.5s-3.358-7.5-7.5-7.5h-8.899c-18.44 0-33.443 14.975-33.443 33.383v142.171c0 4.142 3.358 7.5 7.5 7.5z"/><path d="m91.754 353.506h330.64c14.987 0 27.18-12.193 27.18-27.181v-107.971c0-4.142-3.357-7.5-7.5-7.5s-7.5 3.358-7.5 7.5v107.972c0 6.716-5.464 12.181-12.18 12.181h-330.64c-6.716 0-12.18-5.464-12.18-12.181v-251.646h355v109.209c0 4.142 3.357 7.5 7.5 7.5s7.5-3.358 7.5-7.5v-156.709c0-14.987-12.192-27.18-27.18-27.18h-330.64c-14.987 0-27.18 12.193-27.18 27.18v299.145c-.001 14.988 12.192 27.181 27.18 27.181zm0-338.506h330.64c6.716 0 12.18 5.464 12.18 12.18v32.5h-355v-32.5c-.001-6.716 5.463-12.18 12.18-12.18z"/><path d="m95.555 40.45c.19.45.42.89.69 1.3s.59.79.93 1.13c.35.35.73.66 1.14.94.41.27.84.5 1.3.69.45.18.92.33 1.4.43.48.09.98.14 1.46.14 1.98 0 3.91-.8 5.31-2.2.34-.34.66-.72.93-1.13s.5-.85.69-1.3.33-.92.43-1.4c.1-.49.14-.98.14-1.47s-.04-.98-.14-1.46-.24-.95-.43-1.41c-.19-.45-.42-.88-.69-1.29s-.59-.8-.93-1.14c-.35-.35-.73-.66-1.14-.93s-.84-.51-1.3-.69c-.45-.19-.92-.33-1.4-.43-.97-.2-1.96-.2-2.93 0-.48.1-.95.24-1.4.43-.46.18-.89.42-1.3.69s-.79.58-1.14.93c-.34.34-.66.73-.93 1.14s-.5.84-.69 1.29c-.19.46-.33.93-.43 1.41s-.14.97-.14 1.46.04.98.14 1.47c.1.48.24.95.43 1.4z"/><path d="m128.315 43.82c.41.27.84.5 1.3.69.45.19.92.33 1.4.43.48.09.98.14 1.46.14.49 0 .99-.05 1.47-.14.48-.1.95-.24 1.4-.43.46-.19.89-.42 1.3-.69.41-.28.79-.59 1.14-.94.34-.34.66-.72.93-1.13s.5-.85.69-1.3.33-.92.43-1.4c.1-.49.15-.98.15-1.47s-.05-.98-.15-1.46-.24-.95-.43-1.41c-.19-.45-.42-.88-.69-1.29s-.59-.8-.93-1.14c-.35-.35-.73-.66-1.14-.93s-.84-.51-1.3-.69c-.45-.19-.92-.34-1.4-.43-.97-.2-1.96-.2-2.93 0-.48.09-.95.24-1.4.43-.46.18-.89.42-1.3.69s-.79.58-1.14.93c-.34.34-.66.73-.93 1.14s-.5.84-.69 1.29c-.19.46-.33.93-.43 1.41s-.14.97-.14 1.46c0 1.98.8 3.91 2.19 5.3.35.35.73.66 1.14.94z"/><path d="m158.315 43.82c.41.27.84.5 1.3.69.45.19.92.33 1.4.43.48.09.98.14 1.47.14.48 0 .98-.05 1.46-.14.48-.1.95-.24 1.4-.43.46-.19.89-.42 1.3-.69s.79-.59 1.14-.93c1.39-1.4 2.19-3.33 2.19-5.31 0-1.97-.8-3.91-2.19-5.3-.35-.35-.73-.66-1.14-.93s-.84-.51-1.3-.69c-.45-.19-.92-.33-1.4-.43-.97-.2-1.96-.2-2.93 0-.48.1-.95.24-1.4.43-.46.18-.89.42-1.3.69s-.79.58-1.14.93c-1.39 1.39-2.19 3.33-2.19 5.3 0 1.98.8 3.91 2.19 5.31.35.34.73.66 1.14.93z"/><path d="m397.233 214.173h-220.464c-4.142 0-7.5 3.358-7.5 7.5s3.358 7.5 7.5 7.5h220.464c4.143 0 7.5-3.358 7.5-7.5s-3.357-7.5-7.5-7.5z"/><path d="m131.683 199.113c-12.407 0-22.5 10.093-22.5 22.5s10.093 22.5 22.5 22.5 22.5-10.093 22.5-22.5-10.093-22.5-22.5-22.5zm0 30c-4.136 0-7.5-3.364-7.5-7.5s3.364-7.5 7.5-7.5 7.5 3.364 7.5 7.5-3.364 7.5-7.5 7.5z"/><path d="m397.233 279.173h-220.464c-4.142 0-7.5 3.358-7.5 7.5s3.358 7.5 7.5 7.5h220.464c4.143 0 7.5-3.358 7.5-7.5s-3.357-7.5-7.5-7.5z"/><path d="m131.683 264.113c-12.407 0-22.5 10.093-22.5 22.5s10.093 22.5 22.5 22.5 22.5-10.093 22.5-22.5-10.093-22.5-22.5-22.5zm0 30c-4.136 0-7.5-3.364-7.5-7.5s3.364-7.5 7.5-7.5 7.5 3.364 7.5 7.5-3.364 7.5-7.5 7.5z"/><path d="m251.982 119.043c4.142 0 7.5-3.358 7.5-7.5s-3.358-7.5-7.5-7.5h-29.982c-4.142 0-7.5 3.358-7.5 7.5v59.983c0 4.142 3.358 7.5 7.5 7.5h29.982c4.142 0 7.5-3.358 7.5-7.5s-3.358-7.5-7.5-7.5h-22.482v-14.992h22.482c4.142 0 7.5-3.358 7.5-7.5s-3.358-7.5-7.5-7.5h-22.482v-14.992h22.482z"/><path d="m157.965 174.078c.015.042.031.084.046.125.001.002.002.005.003.007.375.98.938 1.843 1.637 2.557l.008.008c.033.034.067.068.101.101.021.021.043.042.064.062.012.012.024.023.036.035.69.654 1.513 1.185 2.443 1.545l.093.036c.016.006.033.012.049.018.697.255 1.435.408 2.191.446h.005c.038.002.076.003.114.005.012 0 .023.001.035.001.031.001.063.002.094.002.03.001.059.001.089.001h.039.004s.003 0 .004 0h.039c.03 0 .059 0 .089-.001.031-.001.063-.001.094-.002.012 0 .023-.001.035-.001.038-.001.076-.003.114-.005h.005c.754-.038 1.49-.19 2.186-.444.021-.008.041-.015.062-.023.026-.01.052-.02.077-.029.936-.361 1.764-.894 2.457-1.553.008-.007.016-.015.023-.022.025-.024.051-.049.076-.073.027-.026.053-.053.079-.079l.03-.03c.697-.713 1.259-1.574 1.633-2.552.001-.002.002-.005.003-.007.016-.042.031-.083.046-.125.071-.195.134-.393.188-.594l8.779-30.994 6.633 30.624c.877 4.048 4.867 6.619 8.918 5.742 4.048-.877 6.619-4.87 5.742-8.918l-12.992-59.983c-.729-3.364-3.654-5.8-7.095-5.908-3.465-.132-6.513 2.14-7.452 5.452l-9.774 34.506-9.774-34.506c-.938-3.312-3.988-5.598-7.452-5.452-3.44.108-6.366 2.544-7.095 5.908l-12.992 59.983c-.877 4.048 1.694 8.041 5.742 8.918 4.052.874 8.041-1.694 8.918-5.742l6.633-30.624 8.778 30.993c.059.199.121.397.192.592z"/><path d="m288.5 171.526v-32.236l21.003 36.014c1.367 2.345 3.859 3.723 6.479 3.722.649 0 1.307-.084 1.957-.26 3.271-.884 5.543-3.852 5.543-7.24v-59.983c0-4.142-3.357-7.5-7.5-7.5s-7.5 3.358-7.5 7.5v32.236l-21.003-36.014c-1.707-2.927-5.163-4.347-8.436-3.462-3.271.884-5.543 3.852-5.543 7.24v59.983c0 4.142 3.358 7.5 7.5 7.5s7.5-3.358 7.5-7.5z"/><path d="m345.982 104.043c-4.143 0-7.5 3.358-7.5 7.5v59.983c0 4.142 3.357 7.5 7.5 7.5h30.982c4.143 0 7.5-3.358 7.5-7.5v-59.983c0-4.142-3.357-7.5-7.5-7.5s-7.5 3.358-7.5 7.5v52.483h-15.982v-52.483c0-4.142-3.357-7.5-7.5-7.5z"/></g></svg>