<svg height="512" viewBox="0 0 256 256" width="512" xmlns="http://www.w3.org/2000/svg"><rect fill="#cecece" height="191.333" rx="15.327" width="223.345" x="13.313" y="21.027"/><path d="m23.313 197.033v-160.679a15.327 15.327 0 0 1 15.327-15.327h-10a15.327 15.327 0 0 0 -15.327 15.327v160.679a15.327 15.327 0 0 0 15.327 15.327h10a15.327 15.327 0 0 1 -15.327-15.327z" fill="#afafaf"/><path d="m226.658 197.033v-160.679a15.327 15.327 0 0 0 -15.327-15.327h10a15.327 15.327 0 0 1 15.327 15.327v160.679a15.327 15.327 0 0 1 -15.327 15.327h-10a15.327 15.327 0 0 0 15.327-15.327z" fill="#e2e2e2"/><path d="m236.658 36.354a15.327 15.327 0 0 0 -15.327-15.327h-192.691a15.327 15.327 0 0 0 -15.327 15.327v26.673h223.345z" fill="#f8af23"/><path d="m38.64 21.027h-10a15.327 15.327 0 0 0 -15.327 15.327v26.673h10v-26.673a15.327 15.327 0 0 1 15.327-15.327z" fill="#f87023"/><path d="m211.331 21.027h10a15.327 15.327 0 0 1 15.327 15.327v26.673h-10v-26.673a15.327 15.327 0 0 0 -15.327-15.327z" fill="#f8d323"/><circle cx="40.673" cy="42.027" fill="#f46275" r="7"/><circle cx="67.636" cy="42.027" fill="#f46275" r="7"/><circle cx="94.598" cy="42.027" fill="#f46275" r="7"/><rect fill="#f46275" height="10.667" rx="5.333" width="99.24" x="117.059" y="37.152"/><path d="m32.986 80.18h60v10.5h-60z" fill="#f46275"/><path d="m58.986 103.18h41.5v10.5h-41.5z" fill="#f46275"/><path d="m107.986 103.18h54.5v10.5h-54.5z" fill="#f46275"/><path d="m58.986 122.18h24.5v10.5h-24.5z" fill="#f8af23"/><path d="m58.986 186.18h24.5v10.5h-24.5z" fill="#f46275"/><path d="m93.486 122.18h69v10.5h-69z" fill="#f8af23"/><path d="m32.986 144.18h60v10.5h-60z" fill="#63bce7"/><path d="m58.986 167.18h41.5v10.5h-41.5z" fill="#63bce7"/><path d="m107.986 167.18h54.5v10.5h-54.5z" fill="#63bce7"/><path d="m93.486 186.18h69v10.5h-69z" fill="#f46275"/><circle cx="199.187" cy="192.68" fill="#63bce7" r="43.5"/><path d="m199.187 149.18a43.9 43.9 0 0 0 -5 .295 43.493 43.493 0 0 1 0 86.41 43.5 43.5 0 1 0 5-86.705z" fill="#63e2e7"/><g fill="#3f3679"><path d="m27.323 245.653h-18a1.5 1.5 0 1 0 0 3h18a1.5 1.5 0 1 0 0-3z"/><path d="m246.68 245.653h-18a1.5 1.5 0 0 0 0 3h18a1.5 1.5 0 0 0 0-3z"/><path d="m218.479 245.653h-180.958a1.5 1.5 0 0 0 0 3h180.958a1.5 1.5 0 0 0 0-3z"/><path d="m9.32 237.68h237.36a1.5 1.5 0 0 0 0-3h-31.366a44.943 44.943 0 0 0 22.833-64.475c0-.038.011-.073.011-.112v-133.739a16.841 16.841 0 0 0 -16.827-16.827h-192.69a16.841 16.841 0 0 0 -16.828 16.827v160.679a16.846 16.846 0 0 0 16.828 16.827h130.859a45.254 45.254 0 0 0 23.563 20.82h-173.743a1.5 1.5 0 1 0 0 3zm19.321-215.153h192.69a13.819 13.819 0 0 1 13.827 13.828v25.172h-220.345v-25.173a13.819 13.819 0 0 1 13.828-13.827zm0 188.333a13.843 13.843 0 0 1 -13.827-13.827v-132.506h220.344v101.148a44.953 44.953 0 0 0 -72.052.142 1.489 1.489 0 0 0 -.62-.138h-54.5a1.5 1.5 0 0 0 -1.5 1.5v10.5a1.5 1.5 0 0 0 1.5 1.5h48.272a44.641 44.641 0 0 0 -1.345 5.5h-61.427a1.5 1.5 0 0 0 -1.5 1.5v10.5a1.5 1.5 0 0 0 1.5 1.5h61.049a44.619 44.619 0 0 0 3.5 12.68zm125.619-15.68h-59.274v-7.5h59.485a45.244 45.244 0 0 0 -.284 5c0 .839.027 1.672.073 2.5zm3.074-19h-47.848v-7.5h51.5v.255a44.868 44.868 0 0 0 -3.652 7.245zm-.147 16.5a42 42 0 1 1 42 42 42.048 42.048 0 0 1 -42-42z"/><path d="m40.673 50.527a8.5 8.5 0 1 0 -8.5-8.5 8.51 8.51 0 0 0 8.5 8.5zm0-14a5.5 5.5 0 1 1 -5.5 5.5 5.506 5.506 0 0 1 5.5-5.5z"/><path d="m67.636 50.527a8.5 8.5 0 1 0 -8.5-8.5 8.51 8.51 0 0 0 8.5 8.5zm0-14a5.5 5.5 0 1 1 -5.5 5.5 5.506 5.506 0 0 1 5.5-5.5z"/><path d="m94.6 50.527a8.5 8.5 0 1 0 -8.5-8.5 8.51 8.51 0 0 0 8.5 8.5zm0-14a5.5 5.5 0 1 1 -5.5 5.5 5.506 5.506 0 0 1 5.5-5.5z"/><path d="m122.392 49.319h88.573a6.833 6.833 0 0 0 0-13.667h-88.573a6.833 6.833 0 0 0 0 13.667zm0-10.667h88.573a3.833 3.833 0 0 1 0 7.667h-88.573a3.833 3.833 0 0 1 0-7.667z"/><path d="m32.986 92.18h60a1.5 1.5 0 0 0 1.5-1.5v-10.5a1.5 1.5 0 0 0 -1.5-1.5h-60a1.5 1.5 0 0 0 -1.5 1.5v10.5a1.5 1.5 0 0 0 1.5 1.5zm1.5-10.5h57v7.5h-57z"/><path d="m57.486 103.18v10.5a1.5 1.5 0 0 0 1.5 1.5h41.5a1.5 1.5 0 0 0 1.5-1.5v-10.5a1.5 1.5 0 0 0 -1.5-1.5h-41.5a1.5 1.5 0 0 0 -1.5 1.5zm3 1.5h38.5v7.5h-38.5z"/><path d="m107.986 115.18h54.5a1.5 1.5 0 0 0 1.5-1.5v-10.5a1.5 1.5 0 0 0 -1.5-1.5h-54.5a1.5 1.5 0 0 0 -1.5 1.5v10.5a1.5 1.5 0 0 0 1.5 1.5zm1.5-10.5h51.5v7.5h-51.5z"/><path d="m58.986 120.68a1.5 1.5 0 0 0 -1.5 1.5v10.5a1.5 1.5 0 0 0 1.5 1.5h24.5a1.5 1.5 0 0 0 1.5-1.5v-10.5a1.5 1.5 0 0 0 -1.5-1.5zm23 10.5h-21.5v-7.5h21.5z"/><path d="m83.486 184.68h-24.5a1.5 1.5 0 0 0 -1.5 1.5v10.5a1.5 1.5 0 0 0 1.5 1.5h24.5a1.5 1.5 0 0 0 1.5-1.5v-10.5a1.5 1.5 0 0 0 -1.5-1.5zm-1.5 10.5h-21.5v-7.5h21.5z"/><path d="m162.486 120.68h-69a1.5 1.5 0 0 0 -1.5 1.5v10.5a1.5 1.5 0 0 0 1.5 1.5h69a1.5 1.5 0 0 0 1.5-1.5v-10.5a1.5 1.5 0 0 0 -1.5-1.5zm-1.5 10.5h-66v-7.5h66z"/><path d="m94.486 154.68v-10.5a1.5 1.5 0 0 0 -1.5-1.5h-60a1.5 1.5 0 0 0 -1.5 1.5v10.5a1.5 1.5 0 0 0 1.5 1.5h60a1.5 1.5 0 0 0 1.5-1.5zm-3-1.5h-57v-7.5h57z"/><path d="m100.486 165.68h-41.5a1.5 1.5 0 0 0 -1.5 1.5v10.5a1.5 1.5 0 0 0 1.5 1.5h41.5a1.5 1.5 0 0 0 1.5-1.5v-10.5a1.5 1.5 0 0 0 -1.5-1.5zm-1.5 10.5h-38.5v-7.5h38.5z"/><path d="m207.082 171.686a4.7 4.7 0 0 0 -6.056 2.746l-12.48 33.186a4.7 4.7 0 1 0 8.8 3.31l12.48-33.186a4.7 4.7 0 0 0 -2.744-6.056z"/><path d="m182.488 179.976a4.7 4.7 0 0 0 -6.65 0l-9.379 9.379a4.7 4.7 0 0 0 0 6.65l9.379 9.379a4.7 4.7 0 0 0 6.65-6.65l-6.054-6.054 6.054-6.054a4.7 4.7 0 0 0 0-6.65z"/><path d="m231.914 189.355-9.379-9.379a4.7 4.7 0 0 0 -6.65 6.65l6.054 6.054-6.054 6.054a4.7 4.7 0 0 0 6.65 6.65l9.379-9.384a4.7 4.7 0 0 0 0-6.645z"/></g></svg>