<svg id="_x31__x2C_5" enable-background="new 0 0 24 24" height="512" viewBox="0 0 24 24" width="512" xmlns="http://www.w3.org/2000/svg"><path d="m23.25 5.75v11h-22.5v-11c0-.55.45-1 1-1h20.5c.55 0 1 .45 1 1z" fill="#eceff1"/><path d="m15.121 22.679c-1.064-1.064-1.096-2.095-1.096-2.146-.002-.223-.182-.403-.405-.403h-3.256c-.223 0-.405.184-.405.407 0 .044-.014 1.075-1.08 2.141-.116.116-.151.29-.088.441.062.151.21.25.374.25h5.67c.164 0 .312-.098.374-.25s.028-.324-.088-.44z" fill="#90a4ae"/><path d="m23.25 16.75v2.5c0 .55-.45 1-1 1h-20.5c-.55 0-1-.45-1-1v-2.5z" fill="#607d8b"/><path d="m22.25 21h-20.5c-.965 0-1.75-.785-1.75-1.75v-13.5c0-.965.785-1.75 1.75-1.75h2.5c.414 0 .75.336.75.75s-.336.75-.75.75h-2.5c-.138 0-.25.112-.25.25v13.5c0 .138.112.25.25.25h20.5c.138 0 .25-.112.25-.25v-13.5c0-.138-.112-.25-.25-.25h-2.5c-.414 0-.75-.336-.75-.75s.336-.75.75-.75h2.5c.965 0 1.75.785 1.75 1.75v13.5c0 .965-.785 1.75-1.75 1.75z"/><path d="m23.25 17.5h-22.5c-.414 0-.75-.336-.75-.75s.336-.75.75-.75h22.5c.414 0 .75.336.75.75s-.336.75-.75.75z"/><path d="m15.25 24h-6.5c-.304 0-.577-.183-.693-.463-.115-.28-.052-.603.163-.817 1.046-1.046 1.266-2.555 1.268-2.57.056-.409.427-.691.844-.642.409.056.697.431.643.84-.007.059-.147 1.066-.743 2.152h3.522c-.591-1.08-.737-2.088-.746-2.146-.057-.41.229-.789.64-.847.417-.06.788.229.846.639.007.044.232 1.469 1.186 2.488.193.136.32.361.32.616 0 .414-.336.75-.75.75z"/><path d="m6.75 8c-.192 0-.384-.073-.53-.22-.293-.293-.293-.768 0-1.061l2.719-2.719-2.719-2.72c-.293-.293-.293-.768 0-1.061s.768-.293 1.061 0l3.25 3.25c.293.293.293.768 0 1.061l-3.251 3.25c-.146.147-.338.22-.53.22z"/><path d="m17.25 8h-4.5c-.414 0-.75-.336-.75-.75s.336-.75.75-.75h4.5c.414 0 .75.336.75.75s-.336.75-.75.75z"/></svg>