<svg id="bold" enable-background="new 0 0 32 32" height="512" viewBox="0 0 32 32" width="512" xmlns="http://www.w3.org/2000/svg"><path d="m26 32h-20c-3.314 0-6-2.686-6-6v-20c0-3.314 2.686-6 6-6h20c3.314 0 6 2.686 6 6v20c0 3.314-2.686 6-6 6z" fill="#f5e6fe"/><g fill="#d9a4fc"><path d="m13.453 13.993c.1.113.24.173.38.173.113 0 .233-.04.327-.12.207-.18.233-.493.053-.707l-.72-.84.72-.84c.18-.213.153-.527-.053-.707-.213-.18-.527-.153-.707.053l-1 1.167c-.16.187-.16.467 0 .653z"/><path d="m15.387 15.153c.28.06.54-.113.6-.373l1-4.333c.06-.267-.107-.54-.373-.6-.267-.06-.54.107-.6.373l-1 4.333c-.061.267.106.54.373.6z"/><path d="m17.84 14.047c.093.08.213.12.327.12.14 0 .28-.06.38-.173l1-1.167c.16-.187.16-.467 0-.653l-1-1.167c-.18-.207-.493-.233-.707-.053-.207.18-.233.493-.053.707l.72.84-.72.84c-.18.212-.154.526.053.706z"/></g><path d="m23.102 12.295-1.102-.573v-1.889c0-1.1-.9-2-2-2h-8c-1.1 0-2 .9-2 2v1.889l-1.101.573c-.555.288-.899.855-.899 1.478v7.727c0 .919.747 1.667 1.667 1.667h12.667c.919 0 1.667-.748 1.667-1.667v-7.727c-.001-.623-.345-1.19-.899-1.478zm-.616 1.183c.111.058.18.171.18.295v.329l-.666.349v-1.226zm-10.486-4.311h8c.361 0 .667.305.667.667v5.314l-4.353 2.274c-.194.1-.436.1-.624.001l-4.356-2.275v-5.315c-.001-.361.305-.666.666-.666zm-2.486 4.311.486-.253v1.226l-.667-.348v-.329c0-.125.069-.238.181-.296zm12.819 8.355h-12.666c-.184 0-.333-.149-.333-.333v-5.893l5.741 2.999c.29.15.607.225.925.225s.638-.075.93-.226l5.738-2.997v5.892c-.001.184-.151.333-.335.333z" fill="#be63f9"/></svg>