<svg id="flat" height="512" viewBox="0 0 512 512" width="512" xmlns="http://www.w3.org/2000/svg"><path d="m280 256h208v144h-208z" fill="#556c80"/><path d="m24 88h368v240h-368z" fill="#718799"/><path d="m176 328h64v96h-64z" fill="#548aff"/><path d="m336 424v-16l32-24h32l32 24v16z" fill="#718799"/><g fill="#ffc431"><path d="m145.92578 269.20605-48-56a7.99938 7.99938 0 0 1 0-10.4121l48-56 12.14844 10.4121-43.5376 50.79395 43.5376 50.79395z"/><path d="m261.65674 269.65723-11.31348-11.31446 50.34274-50.34277-50.34278-50.34277 11.31348-11.31446 56 56a8.00034 8.00034 0 0 1 0 11.31446z"/><path d="m139.648 200h136.704v16h-136.704z" transform="matrix(.351 -.936 .936 .351 -59.784 329.736)"/></g><path d="m80 328h32v24h-32z" fill="#548aff"/><path d="m176 392h-56a32.03635 32.03635 0 0 1 -32-32v-8h16v8a16.01833 16.01833 0 0 0 16 16h56z" fill="#486be0"/><path d="m240 376h40v16h-40z" fill="#486be0"/><path d="m200 392a8 8 0 0 0 16 0v-64h-16z" fill="#4976f2"/><path d="m144 416h128v16h-128z" fill="#7dafff"/></svg>